<svg width="24" height="24" viewBox="0 0 575 575" fill="none" xmlns="http://www.w3.org/2000/svg">
<g clip-path="url(#clip0_10_26)">
<g clip-path="url(#clip1_10_26)">
<path d="M304.984 136.739C310.195 136.578 315.177 138.9 318.477 142.931C330.196 157.248 334.866 176.88 341.526 193.8C347.474 208.906 354.846 223.575 359.357 239.033C364.427 256.407 366.558 274.478 374.224 291.063C380.119 304.053 388.967 315.39 398.218 326.193C407.148 336.312 416.661 346.282 423.697 357.874C428.374 365.699 432.244 374.571 435.363 383.126C442.225 401.937 445.588 419.342 461.656 432.719C452.294 437.683 443.627 441.921 433.221 444.445C424.026 447.101 414.187 448.977 404.588 449.13C400.757 449.19 395.018 445.745 391.888 443.599C387.281 440.487 383.21 436.642 379.843 432.216C371.087 420.695 371.558 412.941 368.286 399.621C366.53 392.466 363.885 385.558 360.419 379.061C350.555 360.922 337.324 351.274 323.158 337.193C305.462 320.067 295.831 297.517 292.623 273.342C291.837 262.922 290.598 253.444 288.718 243.155C286.983 233.659 284.197 224.297 282.511 214.932C281.722 210.588 281.407 206.173 281.566 201.761C281.807 194.726 283.085 187.618 283.97 180.599C285.053 171.997 285.351 161.666 287.603 153.419C288.414 150.341 289.766 147.433 291.593 144.83C295.109 139.852 299.195 137.738 304.984 136.739Z" fill="black"/>
<path d="M213.737 119.503C214.014 119.805 214.282 119.99 214.359 120.358C215.256 124.645 219.77 128.72 219.605 133.27C219.344 140.481 215.484 149.393 212.839 156.007C202.871 181.288 188.58 204.642 170.606 225.022C154.666 243.341 136.6 259.631 121.086 278.273C119.395 280.301 116.947 284.026 118.977 286.427C121.773 287.56 126.66 285.149 129.209 283.778C139.404 278.294 148.081 270.455 156.306 262.411C175.063 244.067 192.932 224.756 202.358 199.799C209.21 181.678 215.77 163.095 224.789 145.9C227.584 141.321 230.18 135.964 235.881 134.703C240.413 133.569 243.959 135.969 246.23 139.848C251.703 149.197 247.403 159.085 245.99 168.809C245.248 173.915 243.965 178.722 243.035 183.704C241.571 191.545 240.365 199.161 237.26 206.59C231.37 221.549 220.431 232.701 211.134 245.48C205.805 252.805 201.101 260.97 196.446 268.77C182.79 295.246 172.899 304.962 147.388 319.57C138.761 324.513 128.242 332.058 121.176 339.061C109.595 350.54 99.9628 364.621 89.3244 377.003C84.4518 382.675 79.3009 388.095 73.8905 393.254C70.8789 396.076 67.7865 398.448 64.8248 401.376C61.8333 397.209 58.076 392.999 55.4383 388.559C42.0466 366.009 31.0091 328.167 49.4642 305.56C61.1709 291.221 78.5138 279.055 93.1107 267.697C110.406 254.239 127.813 241.45 142.085 224.629C161.16 202.819 177.593 179.138 192.585 154.435C196.334 148.289 200.004 142.095 203.592 135.853C206.243 131.206 210.345 123.515 213.737 119.503Z" fill="black"/>
<path d="M253.199 238.291C267.269 237.279 269.531 266.368 270.533 276.027C271.142 281.749 271.917 287.453 272.859 293.128C275.957 311.89 284.14 327.108 276.959 346.415C270.052 364.985 255.377 370.335 238.522 377.087C231.618 379.778 224.841 382.78 218.212 386.087C209.083 390.676 200.846 396.858 193.888 404.339C182.128 416.749 172.869 432.253 173.295 449.814C159.333 449.563 145.386 448.795 131.934 444.897C129.528 444.203 127.059 443.579 124.637 442.921C114.084 438.817 99.3015 432.508 90.6316 425.044C92.4614 416.667 99.1025 401.914 103.142 394.202C112.611 376.318 125.623 359.578 141.336 346.744C156.582 334.291 175.05 325.752 189.114 311.798C197.671 303.311 202.94 293.511 208.669 283.13C216.242 269.41 225.915 257.496 238.262 247.801C243.351 243.776 246.824 240.306 253.199 238.291Z" fill="black"/>
<path d="M346.755 116.033C349.265 116.84 351.05 119.027 352.314 121.299C374.899 161.87 399.854 203.484 432.923 236.44C457.597 261.026 491.626 278.499 514.109 305.181C533.462 328.145 520.224 371.482 504.702 393.459C502.97 395.894 501.118 398.146 499.568 400.738L499.355 401.103C482.743 401.421 473.233 393.405 462.604 381.459C452.984 370.65 445.113 358.63 436.821 346.8C422.287 326.364 403.192 311.051 392.443 288.232C390.921 285.003 385.312 272.865 388.97 270.621C397.673 265.883 414.639 276.895 421.65 281.643C428.497 286.277 463.804 319.825 471.384 313.239C471.583 312.591 471.629 312.117 471.473 311.465C468.428 298.8 432.47 272.89 421.37 265.72C413.867 260.873 405.858 256.851 398.381 251.947C391.416 247.38 385.656 242.321 380.865 235.473C374.255 226.016 370.01 215.585 365.333 205.126C362.44 198.658 359.299 192.281 356.191 185.914C349.69 172.601 338.775 158.849 335.864 144.198C334.543 137.546 336.937 132.073 341.451 127.347C343.041 125.685 344.864 124.123 346.093 122.163C347.382 120.112 347.47 118.823 346.879 116.497L346.755 116.033Z" fill="black"/>
<path d="M301.212 355.195C301.775 355.205 302.338 355.227 302.897 355.266C308.013 355.63 314.089 359.861 317.339 363.76C326.34 374.537 328.726 388.993 327.897 402.547C327.002 417.194 318.306 429.155 308.814 439.589C305.755 442.952 302.458 446.734 298.985 449.697C290.597 449.502 281.469 449.683 273.032 449.683L222.288 449.69C213.287 449.729 204.286 449.711 195.285 449.644C200.004 437.765 206.469 421.195 216.594 413.006C236.016 397.296 264.995 394.354 281.855 374.888C287.219 368.695 292.828 357.05 301.212 355.195Z" fill="black"/>
</g>
</g>
<defs>
<clipPath id="clip0_10_26">
<rect width="575" height="575" fill="white"/>
</clipPath>
<clipPath id="clip1_10_26">
<rect width="575" height="575" fill="white"/>
</clipPath>
</defs>
</svg>
